{"title":"Rising Sun 1993 720p.BluRay.5.1.x264 . NVEE","uid":12125246,"size":1772130714,"categoryP":"video","categoryS":"hd___movies","magnet":"?xt=urn:btih:78d8349df3f4d7b31e722958fa1cde28affae700&amp;dn=Rising+Sun+1993+720p.BluRay.5.1.x264+.+NVEE&amp;tr=udp%3A%2F%2Ftracker.openbittorrent.com%3A80&amp;tr=udp%3A%2F%2Fopen.demonii.com%3A1337&amp;tr=udp%3A%2F%2Ftracker.coppersurfer.tk%3A6969&amp;tr=udp%3A%2F%2Fexodus.desync.com%3A6969","seeders":4,"leechers":1,"uploader":".NVEE","files":2,"time":1436913822,"description":"Quick note : \n\nTrackers refresh never most current &amp; so if, \nYou require a torrent release I have posted in the past, not seeding,... \nPlease do not hesitate to inform me in any means you find fit to do so. \nTorrent requests also &quot;Always Welcome.&quot; \n\n \nFULL_INFOs \n\n99.99% &gt;&gt;&gt; SYNCED GUARANTEED \n\n&quot;Totally scrutinized / analyzed to be a verified torrent.&quot; \n___________________________________________ \n\nSource : Blu-ray ~ 720p \n\n \n\nSpoken Language : English \n\nAudio : 6 ~ Channels Only \n\n \nSubs Info : \n\nEnglish .srt \n\nAll .srt UTF-8 .idx &amp; .ass subs can be turned On/Off \n_____________________________________ \n--------------------------------------------------------------------------------- \n \nGeneral Metadata \n\nComplete name : Rising Sun 1993.720p.BluRay.5.1.x264 . NVEE.mp4 \nFormat : MPEG-4 \nFormat profile : Base Media \nCodec ID : isom \nFile size : 1.65 GiB \nDuration : 2h 9mn \nOverall bit rate : 1 825 Kbps \nEncoded date : UTC 2015-07-13 15:11:57 \nTagged date : UTC 2015-07-13 15:11:57 \n\n \nVideo \n\nID : 1 \nFormat : AVC \nFormat/Info : Advanced Video Codec \nFormat profile : High@L4 \nFormat settings, CABAC : Yes \nFormat settings, ReFrames : 6 frames \nCodec ID : avc1 \nCodec ID/Info : Advanced Video Coding \nDuration : 2h 9mn \nBit rate : 1 183 Kbps \nMaximum bit rate : 6 855 Kbps \nWidth : 1 280 pixels \nHeight : 688 pixels \nDisplay aspect ratio : 1.85:1 \nFrame rate mode : Constant \nFrame rate : 23.976 fps \nColor space : YUV \nChroma subsampling : 4:2:0 \nBit depth : 8 bits \nScan type : Progressive \nBits/(Pixel*Frame) : 0.056 \nStream size : 1.07 GiB (65%) \nWriting library : x264 core 146 r2538 121396c \n\nEncoded from Physical Blu-ray / Region B \n\n \nAudio \n\nID : 2 \nFormat : AC-3 \nFormat/Info : Audio Coding 3 \nMode extension : CM (complete main) \nFormat settings, Endianness : Big \nCodec ID : ac-3 \nDuration : 2h 9mn \nBit rate mode : Constant \nBit rate : 640 Kbps \nMaximum bit rate : 676 Kbps \nChannel(s) : 6 channels \nChannel positions : Front: L C R, Side: L R, LFE \nSampling rate : 48.0 KHz \nBit depth : 16 bits \nCompression mode : Lossy \nStream size : 592 MiB (35%) \nLanguage : English \nEncoded date : UTC 2015-07-13 15:17:41 \nTagged date : UTC 2015-07-13 15:19:07 \n\nEncoded from Physical Blu-ray 6 Channel audio &quot;Only&quot;. \n\n\n \n\n \n\n \n\n\n\n\nEnj0y !","torrent":{"xt":"urn:btih:78d8349df3f4d7b31e722958fa1cde28affae700","amp;dn":"Rising+Sun+1993+720p.BluRay.5.1.x264+.+NVEE","amp;tr":["udp%3A%2F%2Ftracker.openbittorrent.com%3A80","udp%3A%2F%2Fopen.demonii.com%3A1337","udp%3A%2F%2Ftracker.coppersurfer.tk%3A6969","udp%3A%2F%2Fexodus.desync.com%3A6969"],"infoHash":"78d8349df3f4d7b31e722958fa1cde28affae700","infoHashBuffer":{"type":"Buffer","data":[120,216,52,157,243,244,215,179,30,114,41,88,250,28,222,40,175,250,231,0]},"announce":[],"urlList":[]}}